<mxfile host="Electron" modified="2023-12-01T09:54:15.393Z" agent="Mozilla/5.0 (X11; Linux x86_64) AppleWebKit/537.36 (KHTML, like Gecko) draw.io/22.1.2 Chrome/114.0.5735.289 Electron/25.9.4 Safari/537.36" etag="wDf_Q1v5Xsv0YnoLrcil" version="22.1.2" type="device">
  <diagram name="Page-1" id="zqJ8dTYInIm52E_tpVhm">
    <mxGraphModel dx="1157" dy="703" grid="1" gridSize="10" guides="1" tooltips="1" connect="1" arrows="1" fold="1" page="1" pageScale="1" pageWidth="850" pageHeight="1100" math="0" shadow="0">
      <root>
        <mxCell id="0" />
        <mxCell id="1" parent="0" />
        <mxCell id="hyfGZD0PRPe6MA51b-Nl-1" value="" style="ellipse;html=1;shape=startState;fillColor=#000000;strokeColor=#ff0000;" vertex="1" parent="1">
          <mxGeometry x="340" y="270" width="30" height="30" as="geometry" />
        </mxCell>
        <mxCell id="hyfGZD0PRPe6MA51b-Nl-2" value="" style="edgeStyle=orthogonalEdgeStyle;html=1;verticalAlign=bottom;endArrow=open;endSize=8;strokeColor=#ff0000;rounded=0;" edge="1" source="hyfGZD0PRPe6MA51b-Nl-1" parent="1">
          <mxGeometry relative="1" as="geometry">
            <mxPoint x="355" y="360" as="targetPoint" />
          </mxGeometry>
        </mxCell>
        <mxCell id="hyfGZD0PRPe6MA51b-Nl-4" style="edgeStyle=orthogonalEdgeStyle;rounded=0;orthogonalLoop=1;jettySize=auto;html=1;" edge="1" parent="1" source="hyfGZD0PRPe6MA51b-Nl-3">
          <mxGeometry relative="1" as="geometry">
            <mxPoint x="355.0000000000001" y="470" as="targetPoint" />
          </mxGeometry>
        </mxCell>
        <mxCell id="hyfGZD0PRPe6MA51b-Nl-3" value="Init AI" style="html=1;whiteSpace=wrap;" vertex="1" parent="1">
          <mxGeometry x="300" y="360" width="110" height="50" as="geometry" />
        </mxCell>
        <mxCell id="hyfGZD0PRPe6MA51b-Nl-28" value="" style="group" vertex="1" connectable="0" parent="1">
          <mxGeometry x="240" y="470" width="320" height="360" as="geometry" />
        </mxCell>
        <mxCell id="hyfGZD0PRPe6MA51b-Nl-26" value="" style="group;strokeColor=default;" vertex="1" connectable="0" parent="hyfGZD0PRPe6MA51b-Nl-28">
          <mxGeometry width="320" height="360" as="geometry" />
        </mxCell>
        <mxCell id="hyfGZD0PRPe6MA51b-Nl-13" value="Connect to robot" style="rounded=0;whiteSpace=wrap;html=1;" vertex="1" parent="hyfGZD0PRPe6MA51b-Nl-26">
          <mxGeometry x="25" y="150" width="120" height="60" as="geometry" />
        </mxCell>
        <mxCell id="hyfGZD0PRPe6MA51b-Nl-14" value="Analyze cardstack" style="rounded=0;whiteSpace=wrap;html=1;" vertex="1" parent="hyfGZD0PRPe6MA51b-Nl-26">
          <mxGeometry x="185" y="150" width="120" height="60" as="geometry" />
        </mxCell>
        <mxCell id="hyfGZD0PRPe6MA51b-Nl-15" value="" style="ellipse;html=1;shape=startState;fillColor=#000000;strokeColor=#ff0000;" vertex="1" parent="hyfGZD0PRPe6MA51b-Nl-26">
          <mxGeometry x="145" width="30" height="30" as="geometry" />
        </mxCell>
        <mxCell id="hyfGZD0PRPe6MA51b-Nl-16" value="" style="edgeStyle=orthogonalEdgeStyle;html=1;verticalAlign=bottom;endArrow=open;endSize=8;strokeColor=#ff0000;rounded=0;" edge="1" parent="hyfGZD0PRPe6MA51b-Nl-26">
          <mxGeometry relative="1" as="geometry">
            <mxPoint x="159.79999999999995" y="90" as="targetPoint" />
            <mxPoint x="159.79999999999995" y="30" as="sourcePoint" />
          </mxGeometry>
        </mxCell>
        <mxCell id="hyfGZD0PRPe6MA51b-Nl-17" value="" style="endArrow=none;html=1;rounded=0;strokeWidth=3;" edge="1" parent="hyfGZD0PRPe6MA51b-Nl-26">
          <mxGeometry width="50" height="50" relative="1" as="geometry">
            <mxPoint y="90" as="sourcePoint" />
            <mxPoint x="320" y="90" as="targetPoint" />
          </mxGeometry>
        </mxCell>
        <mxCell id="hyfGZD0PRPe6MA51b-Nl-18" style="edgeStyle=orthogonalEdgeStyle;rounded=0;orthogonalLoop=1;jettySize=auto;html=1;" edge="1" parent="hyfGZD0PRPe6MA51b-Nl-26">
          <mxGeometry relative="1" as="geometry">
            <mxPoint x="84.80000000000013" y="150" as="targetPoint" />
            <mxPoint x="84.80000000000001" y="90" as="sourcePoint" />
          </mxGeometry>
        </mxCell>
        <mxCell id="hyfGZD0PRPe6MA51b-Nl-19" style="edgeStyle=orthogonalEdgeStyle;rounded=0;orthogonalLoop=1;jettySize=auto;html=1;" edge="1" parent="hyfGZD0PRPe6MA51b-Nl-26">
          <mxGeometry relative="1" as="geometry">
            <mxPoint x="244.80000000000018" y="150" as="targetPoint" />
            <mxPoint x="244.79999999999995" y="90" as="sourcePoint" />
          </mxGeometry>
        </mxCell>
        <mxCell id="hyfGZD0PRPe6MA51b-Nl-20" value="" style="endArrow=none;html=1;rounded=0;strokeWidth=3;" edge="1" parent="hyfGZD0PRPe6MA51b-Nl-26">
          <mxGeometry width="50" height="50" relative="1" as="geometry">
            <mxPoint y="270" as="sourcePoint" />
            <mxPoint x="320" y="270" as="targetPoint" />
          </mxGeometry>
        </mxCell>
        <mxCell id="hyfGZD0PRPe6MA51b-Nl-22" style="edgeStyle=orthogonalEdgeStyle;rounded=0;orthogonalLoop=1;jettySize=auto;html=1;" edge="1" parent="hyfGZD0PRPe6MA51b-Nl-26">
          <mxGeometry relative="1" as="geometry">
            <mxPoint x="84.80000000000018" y="270" as="targetPoint" />
            <mxPoint x="84.79999999999995" y="210" as="sourcePoint" />
          </mxGeometry>
        </mxCell>
        <mxCell id="hyfGZD0PRPe6MA51b-Nl-23" style="edgeStyle=orthogonalEdgeStyle;rounded=0;orthogonalLoop=1;jettySize=auto;html=1;" edge="1" parent="hyfGZD0PRPe6MA51b-Nl-26">
          <mxGeometry relative="1" as="geometry">
            <mxPoint x="244.80000000000018" y="270" as="targetPoint" />
            <mxPoint x="244.79999999999995" y="210" as="sourcePoint" />
          </mxGeometry>
        </mxCell>
        <mxCell id="hyfGZD0PRPe6MA51b-Nl-24" value="" style="ellipse;html=1;shape=endState;fillColor=#000000;strokeColor=#ff0000;" vertex="1" parent="hyfGZD0PRPe6MA51b-Nl-26">
          <mxGeometry x="145" y="330" width="30" height="30" as="geometry" />
        </mxCell>
        <mxCell id="hyfGZD0PRPe6MA51b-Nl-25" value="" style="edgeStyle=orthogonalEdgeStyle;html=1;verticalAlign=bottom;endArrow=open;endSize=8;strokeColor=#ff0000;rounded=0;" edge="1" parent="hyfGZD0PRPe6MA51b-Nl-26">
          <mxGeometry relative="1" as="geometry">
            <mxPoint x="159.65999999999997" y="330" as="targetPoint" />
            <mxPoint x="159.65999999999997" y="270" as="sourcePoint" />
          </mxGeometry>
        </mxCell>
        <mxCell id="hyfGZD0PRPe6MA51b-Nl-27" value="Create Robot" style="text;html=1;align=center;verticalAlign=middle;resizable=0;points=[];autosize=1;strokeColor=none;fillColor=none;" vertex="1" parent="hyfGZD0PRPe6MA51b-Nl-28">
          <mxGeometry y="8" width="90" height="30" as="geometry" />
        </mxCell>
      </root>
    </mxGraphModel>
  </diagram>
</mxfile>
